<?xml version="1.0" standalone="no"?>
<!DOCTYPE svg PUBLIC "-//W3C//DTD SVG 20010904//EN"
 "http://www.w3.org/TR/2001/REC-SVG-20010904/DTD/svg10.dtd">
<svg version="1.0" xmlns="http://www.w3.org/2000/svg"
 width="256.000000pt" height="256.000000pt" viewBox="0 0 256.000000 256.000000"
 preserveAspectRatio="xMidYMid meet">
<metadata>
Created by potrace 1.14, written by Peter Selinger 2001-2017
</metadata>
<g transform="translate(0.000000,256.000000) scale(0.100000,-0.100000)"
fill="#000000" stroke="none">
<path d="M814 2529 c-43 -24 -74 -32 -185 -45 -74 -8 -152 -13 -174 -11 l-40
6 29 -24 c34 -27 108 -51 189 -60 31 -4 57 -9 57 -13 0 -4 -19 -18 -41 -32
-54 -33 -146 -122 -197 -191 -67 -89 -115 -244 -82 -264 6 -4 10 7 10 27 1 51
37 103 105 153 22 16 62 47 88 68 26 22 49 38 52 36 2 -2 -10 -33 -27 -67 -44
-94 -65 -213 -72 -402 -3 -91 -3 -175 0 -187 10 -38 27 -26 21 15 -3 20 -2 46
2 56 7 17 10 15 29 -16 28 -46 28 -77 -3 -138 -14 -27 -25 -52 -25 -55 0 -12
20 -3 49 21 36 30 36 29 16 -20 -19 -44 -9 -46 29 -5 l29 31 -11 201 c-17 288
-16 314 8 327 11 6 71 18 133 26 61 8 138 18 170 22 l58 8 14 -32 c10 -24 18
-31 36 -29 13 1 30 3 37 4 7 0 12 16 12 37 l0 37 178 -6 c207 -7 248 -15 256
-55 6 -31 26 -398 29 -542 2 -84 4 -95 19 -92 12 2 16 -2 12 -13 -3 -8 -10
-13 -14 -10 -15 9 -22 -35 -19 -127 l3 -91 -149 -3 c-83 -1 -231 -6 -330 -10
-99 -3 -206 -7 -237 -8 -106 -2 -72 -16 40 -16 62 0 112 -3 112 -7 0 -18 -95
-92 -142 -110 -64 -25 -152 -77 -199 -118 -75 -66 -105 -120 -153 -268 -46
-145 -56 -188 -76 -337 -7 -47 -20 -109 -31 -138 -23 -64 -23 -62 -5 -62 8 0
18 10 22 23 11 37 25 49 40 36 11 -9 14 -8 14 2 0 9 5 8 17 -4 16 -16 16 -19
3 -27 -8 -5 -20 -8 -27 -5 -7 2 -15 -1 -19 -8 -4 -7 -4 -9 1 -5 4 4 14 3 22
-3 7 -6 13 -7 13 -3 0 5 9 15 21 22 19 12 20 11 14 -10 -5 -20 -5 -21 5 -5 9
15 8 23 -7 39 -17 20 -17 21 0 15 11 -4 16 -3 12 3 -3 6 -2 10 4 10 6 0 8 7 5
15 -5 11 -2 13 10 9 15 -6 17 -28 3 -51 -4 -6 -1 -14 5 -17 11 -5 11 -7 0 -12
-30 -14 6 -24 89 -24 86 0 100 5 79 26 -13 13 -30 141 -33 242 -2 73 0 83 23
107 49 53 100 85 123 76 12 -5 47 -12 77 -15 73 -10 90 -15 87 -28 -1 -6 9
-14 23 -18 32 -8 -111 -21 -150 -13 -21 4 -41 -4 -81 -29 -30 -19 -63 -37 -73
-41 -14 -6 -16 -11 -8 -19 8 -8 28 -1 75 26 58 32 73 36 135 36 53 0 71 -4 76
-15 3 -8 13 -15 23 -16 10 0 -9 -7 -42 -15 -78 -19 -225 -90 -225 -109 0 -20
4 -19 48 8 20 13 56 31 80 42 36 15 46 16 66 5 14 -7 33 -10 43 -6 36 14 -3
-13 -72 -50 -38 -20 -75 -43 -81 -51 -13 -16 -15 -135 -2 -127 4 3 8 12 8 20
0 17 5 17 31 4 10 -6 19 -17 19 -25 0 -18 31 -20 48 -3 7 7 12 8 12 2 0 -10
95 -9 146 1 19 4 34 3 38 -4 11 -16 66 -13 72 4 4 8 10 12 15 9 5 -3 7 -10 4
-15 -3 -5 0 -6 8 -3 13 5 17 38 4 50 -3 3 -1 14 6 25 9 14 14 16 26 6 12 -10
13 -9 2 12 -7 13 -8 21 -3 17 6 -3 13 -2 17 4 3 5 1 10 -6 10 -9 0 -9 4 1 15
6 8 19 29 29 47 9 18 23 44 31 58 7 14 16 32 20 40 4 8 15 14 23 14 10 -1 13
4 9 15 -5 14 -4 14 12 2 16 -13 16 -16 2 -26 -18 -14 -18 -54 0 -75 11 -13 9
-20 -12 -43 -28 -30 -36 -34 -28 -13 3 7 -2 16 -10 19 -10 4 -13 1 -9 -9 3 -9
0 -12 -8 -9 -8 3 -21 1 -29 -5 -13 -8 -12 -11 5 -25 16 -12 17 -14 3 -9 -10 3
-18 1 -18 -5 0 -6 5 -11 11 -11 6 0 9 -7 6 -14 -4 -10 -1 -13 8 -10 22 9 27
36 9 55 -10 11 -12 19 -7 19 6 0 16 -7 23 -15 10 -12 15 -13 28 -3 14 12 14
10 1 -9 -8 -13 -17 -23 -21 -23 -4 0 -4 -7 -1 -17 5 -12 3 -14 -7 -8 -10 6
-12 4 -7 -8 3 -9 0 -18 -9 -21 -8 -3 -14 -12 -14 -21 0 -18 -16 -20 -23 -2 -4
7 -6 8 -6 1 -1 -17 27 -37 42 -31 8 3 23 22 34 43 14 28 26 39 44 39 17 0 24
5 22 18 -1 13 4 17 14 12 13 -4 14 -3 3 10 -11 13 -10 18 6 29 18 14 18 15 1
34 -12 13 -15 22 -8 27 6 3 11 15 11 26 0 10 5 19 10 19 6 0 10 5 10 11 0 5 9
31 21 57 11 26 24 56 28 67 14 34 52 111 45 90 -7 -19 -14 -61 -17 -97 -1 -10
-5 -18 -9 -18 -4 0 -7 -8 -6 -17 1 -31 -19 -153 -32 -198 -5 -16 -11 -48 -13
-70 -1 -22 -7 -46 -11 -53 -15 -25 6 -26 24 -2 11 14 15 29 10 34 -5 5 -5 18
0 30 5 11 14 49 20 83 12 58 14 62 32 52 15 -8 23 -8 32 2 8 9 8 10 -1 5 -6
-3 -19 -3 -28 0 -14 6 -16 15 -10 48 3 23 8 52 10 66 6 40 15 83 22 105 6 19
12 70 14 107 0 10 5 21 11 24 7 4 6 9 -3 14 -10 7 -9 18 6 57 26 69 64 249 55
263 -13 21 -30 1 -30 -34 0 -32 -34 -177 -45 -196 -3 -5 -6 -31 -7 -57 0 -35
-7 -56 -24 -76 -13 -15 -33 -54 -45 -87 -18 -51 -24 -58 -36 -48 -12 10 -17 9
-24 -5 -12 -21 -31 -23 -23 -2 4 8 0 23 -7 32 -8 9 -9 14 -3 10 7 -4 17 0 24
8 11 13 10 14 -4 9 -22 -8 -21 13 4 61 11 22 20 45 20 52 0 7 9 17 20 23 11 6
20 16 19 23 0 9 -2 9 -6 0 -2 -7 -9 -13 -14 -13 -5 0 -5 9 1 22 5 13 11 36 15
51 3 15 10 25 15 22 5 -3 7 1 4 9 -3 8 1 30 9 48 21 49 45 128 53 171 6 37 23
60 25 35 1 -7 1 -16 0 -20 0 -5 6 -8 15 -8 8 0 13 -4 9 -10 -3 -5 -12 -7 -19
-4 -8 3 -17 0 -22 -7 -4 -7 -3 -10 4 -5 6 3 14 1 17 -4 5 -8 12 -7 23 3 10 7
28 14 42 14 14 1 19 -1 13 -4 -19 -7 -15 -22 5 -20 19 1 28 37 10 37 -6 0 -9
3 -5 6 3 3 18 -3 34 -14 15 -10 44 -30 64 -42 21 -14 35 -30 32 -37 -3 -8 0
-11 9 -8 33 13 85 -21 171 -110 27 -28 45 -41 41 -30 -9 26 -4 21 42 -45 33
-48 39 -64 42 -122 3 -46 1 -68 -7 -68 -6 0 -11 9 -11 19 0 11 -4 23 -10 26
-5 3 -10 15 -10 26 0 10 -4 19 -9 19 -12 0 -5 -100 8 -113 27 -27 0 -80 -31
-60 -7 3 -8 1 -4 -6 8 -13 -28 -51 -48 -51 -15 0 -91 -79 -99 -102 -4 -11 -12
-15 -22 -12 -10 4 -14 13 -10 23 5 13 4 14 -7 3 -11 -11 -9 -16 7 -28 20 -15
20 -15 -7 -65 -16 -27 -28 -54 -28 -61 0 -6 -6 -19 -14 -27 -21 -25 -29 -71
-12 -71 12 0 46 55 46 74 0 4 10 20 21 35 13 17 18 34 14 42 -6 9 -3 11 9 6 9
-4 15 -3 11 2 -6 11 24 91 35 91 4 0 15 -9 25 -20 10 -11 20 -18 23 -15 3 2
-6 13 -19 24 -13 11 -20 23 -16 27 4 5 13 2 18 -6 8 -12 9 -11 5 5 -4 15 3 28
29 48 18 15 39 27 45 27 6 0 8 5 4 12 -5 8 -2 9 9 5 11 -4 22 2 32 16 l15 21
2 -24 c2 -35 3 -42 16 -70 10 -25 24 -61 27 -70 0 -3 7 -22 14 -42 7 -21 9
-43 5 -49 -4 -8 -3 -9 4 -5 8 5 12 0 12 -12 0 -11 6 -25 14 -31 8 -7 17 -30
21 -52 5 -29 12 -39 25 -39 16 0 17 4 9 32 -5 18 -9 67 -9 110 0 144 -64 394
-131 513 -17 30 -54 76 -83 101 -47 41 -194 143 -265 183 -16 9 -48 31 -72 49
-24 19 -57 36 -72 39 -31 6 -53 33 -67 84 -9 31 -2 59 7 31 7 -20 33 6 33 33
0 34 10 36 46 9 40 -31 55 -25 47 19 -5 26 -3 30 8 20 23 -22 31 -14 25 25 -8
46 -2 54 57 82 26 12 58 36 72 52 30 35 59 130 51 164 -7 28 -5 29 35 8 37
-19 49 -11 24 16 -22 24 -20 24 35 5 53 -19 60 -19 60 0 0 8 -4 15 -10 15 -5
0 -21 17 -34 38 -19 30 -25 55 -30 132 l-6 95 21 -25 c12 -14 35 -49 51 -78
17 -28 33 -50 38 -47 13 8 0 101 -26 176 -14 41 -30 101 -35 134 -15 98 -102
251 -186 331 -18 18 -33 34 -33 37 0 14 137 -56 157 -80 12 -15 25 -24 28 -21
22 22 -128 184 -220 238 l-59 35 -456 2 -455 1 -51 -29z m46 -268 c-11 -22
-25 -43 -32 -47 -8 -5 -7 1 3 16 9 14 21 35 28 48 6 12 14 22 17 22 2 0 -5
-18 -16 -39z m-78 -131 c-39 -79 -56 -89 -22 -14 17 40 46 84 55 84 1 0 -14
-32 -33 -70z m558 -35 c26 -67 25 -75 -10 -75 -29 0 -32 2 -26 23 4 12 9 34
12 50 8 34 12 34 24 2z m-77 -20 c-1 -16 -6 -32 -11 -37 -5 -5 -7 5 -4 23 3
22 1 30 -7 25 -7 -5 -9 -1 -5 9 10 25 29 11 27 -20z m-162 -16 c12 -43 10
-109 -3 -109 -26 0 -37 17 -44 69 -5 40 -4 55 7 62 20 13 32 6 40 -22z m-379
-66 c-3 -16 -7 -22 -10 -15 -4 13 4 42 11 42 2 0 2 -12 -1 -27z m-155 -155
c-2 -18 -4 -6 -4 27 0 33 2 48 4 33 2 -15 2 -42 0 -60z m1331 -190 c66 -72 51
-209 -30 -271 -19 -15 -59 -38 -89 -51 -51 -24 -59 -25 -100 -13 l-44 13 28
18 c17 12 37 16 55 13 32 -6 128 38 143 66 10 18 -5 25 -16 7 -14 -22 -85 -50
-123 -47 l-39 2 31 67 c33 71 46 84 46 43 0 -14 -8 -29 -20 -35 -20 -11 -28
-50 -11 -50 5 0 21 14 35 31 l26 31 0 -26 c0 -18 4 -24 15 -20 22 9 20 64 -2
65 -10 1 2 6 26 13 57 15 71 42 17 32 -24 -5 -43 -3 -52 5 -27 22 -15 32 34
27 59 -7 72 -2 72 25 0 45 -14 52 -62 32 -23 -9 -49 -20 -57 -23 -10 -4 -9 2
3 26 24 46 80 56 114 20z m-21 -64 c2 -10 0 -13 -3 -6 -3 6 -12 12 -20 12 -9
0 -12 5 -9 11 10 15 30 5 32 -17z m-247 -234 c-6 -11 -13 -20 -16 -20 -2 0 0
9 6 20 6 11 13 20 16 20 2 0 0 -9 -6 -20z m-210 -302 c0 -3 -18 -21 -40 -38
-30 -24 -40 -39 -40 -61 0 -19 -11 -41 -35 -66 -34 -36 -38 -46 -50 -130 -7
-46 -10 -48 -48 -34 -20 8 -26 19 -32 60 -6 43 13 185 21 156 1 -5 5 -23 8
-38 4 -15 11 -25 16 -22 17 10 11 79 -10 120 -11 21 -17 41 -14 44 11 12 224
20 224 9z m180 10 c12 -75 11 -79 -23 -141 -20 -34 -45 -71 -56 -81 -12 -11
-21 -25 -21 -31 0 -7 -7 -18 -15 -25 -12 -10 -15 -8 -19 12 -35 168 -42 193
-59 190 -9 -2 -17 -1 -17 2 0 12 89 65 116 69 35 5 94 8 94 5z m-490 -160 c-7
-73 -17 -137 -22 -143 -7 -7 -8 7 -4 40 3 28 8 82 11 120 7 84 15 128 22 121
3 -2 -1 -64 -7 -138z m-30 93 c0 -52 -14 -59 -35 -19 -15 30 -15 34 2 45 27
20 33 16 33 -26z m94 -25 c-3 -16 -12 -43 -20 -60 l-13 -31 0 40 c-1 22 2 58
6 79 6 36 7 38 20 20 8 -12 11 -30 7 -48z m542 10 c8 -8 11 -17 6 -20 -4 -2
-13 4 -20 15 -14 22 -7 25 14 5z m-681 -93 c0 -52 -4 -78 -12 -80 -10 -4 -13
18 -13 88 0 74 3 91 13 81 7 -8 12 -42 12 -89z m369 55 c8 -18 20 -58 25 -88
15 -78 26 -113 37 -117 5 -1 29 24 53 57 24 33 45 60 47 60 6 0 -27 -72 -45
-99 -33 -48 -89 -136 -116 -181 -15 -25 -39 -57 -52 -72 -20 -21 -26 -40 -31
-94 l-5 -67 35 39 c20 21 46 59 58 84 33 65 35 37 3 -45 -28 -69 -169 -341
-199 -380 -13 -17 -16 -18 -25 -5 -11 17 -9 36 25 230 14 80 33 188 42 240 9
52 22 110 31 128 12 27 12 39 3 62 -8 20 -9 43 0 91 9 52 18 70 46 96 24 23
34 41 34 62 0 40 15 39 34 -1z m-434 -130 c-10 -47 -16 -56 -31 -53 -11 2 -19
0 -19 -4 0 -5 -19 -12 -42 -17 -38 -8 -43 -12 -46 -40 -2 -22 -11 -35 -27 -42
-19 -9 -23 -8 -19 2 3 8 1 17 -5 21 -7 4 -11 -7 -10 -32 0 -21 3 -32 6 -25 2
6 11 12 19 12 8 0 14 5 14 11 0 8 5 8 15 -1 19 -16 19 -30 1 -30 -8 0 -17 -7
-20 -16 -3 -9 -13 -14 -20 -11 -9 4 -17 -1 -19 -11 -3 -9 -5 12 -4 48 2 60 4
65 25 66 12 1 25 4 29 8 3 3 -19 5 -50 4 -30 -1 -55 -6 -54 -11 1 -5 -8 -11
-20 -13 -22 -4 -29 12 -24 51 1 6 -5 2 -13 -9 -14 -18 -14 -21 11 -65 2 -2 9
2 18 9 8 7 15 10 15 6 0 -16 -30 -76 -37 -76 -5 0 -8 -32 -6 -72 1 -45 -2 -77
-10 -87 -10 -12 -9 -13 1 -7 10 6 12 -1 10 -28 -1 -23 -7 -36 -16 -36 -12 0
-12 3 -2 15 10 12 10 15 -2 15 -18 0 -17 -1 -21 125 -3 115 1 164 14 144 4 -7
12 -10 16 -5 4 4 0 14 -11 21 -16 12 -16 16 -5 28 8 7 28 29 44 48 38 43 88
76 93 61 4 -14 59 5 66 24 6 16 4 17 -18 8 -9 -3 -14 -9 -11 -13 2 -4 -2 -8
-9 -8 -28 0 -4 23 53 50 32 15 61 27 65 27 4 0 20 9 34 21 l27 21 3 -39 c2
-21 -2 -64 -8 -95z m184 -67 c-2 -2 -10 -1 -18 2 -12 5 -14 15 -10 39 10 60
17 64 24 13 4 -27 6 -52 4 -54z m-16 -25 c53 -8 139 -47 132 -61 -3 -5 -7 -9
-10 -8 -74 34 -101 38 -248 38 -83 0 -152 1 -152 2 0 1 10 7 21 14 43 22 157
29 257 15z m350 -78 c-6 -18 -21 -46 -34 -63 -12 -16 -33 -55 -48 -86 -14 -31
-36 -64 -47 -75 l-22 -19 7 30 c4 17 25 55 46 85 22 30 54 79 71 108 17 28 32
52 34 52 2 0 -1 -15 -7 -32z m-768 -64 c0 -8 -4 -12 -10 -9 -5 3 -10 1 -10 -6
0 -7 -2 -10 -5 -7 -8 7 5 38 16 38 5 0 9 -7 9 -16z m-133 -24 c-1 -11 -5 -20
-9 -20 -10 0 -10 4 -2 24 8 22 13 20 11 -4z m498 8 l57 -11 -6 -64 c-7 -66 6
-115 26 -95 7 7 16 5 27 -4 15 -13 16 -24 7 -79 l-9 -64 -26 13 c-14 8 -41 17
-58 21 -38 8 -41 15 -14 32 16 10 19 23 18 65 -2 49 -4 54 -35 67 -22 10 -32
21 -32 37 0 31 -17 41 -93 54 -37 7 -67 16 -67 20 0 20 122 25 205 8z m-368
-28 c-1 -22 -12 -26 -23 -9 -3 6 0 15 7 20 18 12 18 12 16 -11z m94 2 c-7 -2
-18 1 -23 6 -8 8 -4 9 13 5 13 -4 18 -8 10 -11z m378 -14 c-1 -22 -27 -84 -28
-67 -2 29 11 79 20 79 5 0 9 -6 8 -12z m-612 -46 c1 -22 7 -50 13 -62 6 -11 8
-25 5 -31 -4 -5 -1 -16 5 -24 14 -17 7 -45 -12 -45 -9 0 -9 3 0 12 14 14 -3
39 -22 32 -14 -5 -17 38 -3 47 6 4 5 18 -1 35 l-10 29 -1 -31 c-1 -16 -6 -35
-13 -42 -9 -9 -9 -12 0 -12 16 0 15 -17 -1 -23 -14 -5 -15 5 -4 58 3 17 8 47
12 68 8 50 29 43 32 -11z m421 14 c3 -3 -6 -7 -19 -7 -22 -1 -21 -2 6 -10 34
-9 -91 -3 -136 7 -20 4 -35 -2 -64 -28 l-38 -33 7 30 c11 42 24 55 60 56 17 0
40 4 50 8 18 7 121 -11 134 -23z m1235 -44 c21 -67 21 -76 5 -66 -9 6 -9 3 1
-9 7 -9 11 -24 7 -32 -3 -9 -2 -13 4 -10 6 3 10 -5 10 -19 0 -13 3 -32 7 -41
5 -15 3 -16 -14 -7 -29 16 -76 168 -61 196 6 12 11 22 10 24 -5 7 -1 22 6 22
4 0 15 -26 25 -58z m-1518 -11 c-3 -12 -11 -19 -16 -16 -5 4 -3 14 3 25 15 24
22 19 13 -9z m755 -11 c0 -5 -4 -10 -10 -10 -5 0 -10 5 -10 10 0 6 5 10 10 10
6 0 10 -4 10 -10z m-395 -10 c3 -5 -1 -10 -9 -10 -9 0 -16 5 -16 10 0 6 4 10
9 10 6 0 13 -4 16 -10z m453 -15 c-2 -5 -7 -9 -11 -7 -5 1 -6 -2 -3 -7 4 -5 1
-15 -6 -23 -7 -7 -13 -22 -13 -32 0 -26 -19 -31 -39 -11 -20 20 -20 29 0 49 8
9 11 16 5 16 -5 0 -14 -8 -20 -17 -5 -10 -13 -14 -18 -10 -10 11 37 46 53 40
7 -2 15 1 19 7 8 13 37 9 33 -5z m-818 1 c0 -3 -4 -8 -10 -11 -5 -3 -10 -1
-10 4 0 6 5 11 10 11 6 0 10 -2 10 -4z m-160 -65 c0 -5 -7 -12 -16 -15 -9 -3
-14 -12 -11 -19 2 -6 -2 -19 -11 -26 -14 -13 -15 -11 -8 19 6 31 20 49 39 50
4 0 7 -4 7 -9z m27 -5 c-3 -8 1 -20 9 -26 10 -9 14 -9 14 -1 0 6 5 11 11 11 5
0 9 -8 7 -17 -1 -10 1 -24 6 -31 5 -8 3 -18 -4 -25 -9 -8 -11 -8 -7 -1 4 7 -3
12 -18 12 -14 0 -22 -5 -19 -10 4 -6 -3 -5 -15 1 -11 7 -21 16 -21 22 0 6 4 8
9 5 5 -3 9 5 9 18 0 18 -5 23 -16 18 -11 -4 -10 0 4 15 22 25 39 29 31 9z m81
-11 c-3 -3 -9 2 -12 12 -6 14 -5 15 5 6 7 -7 10 -15 7 -18z m819 -31 c3 -8 0
-21 -6 -27 -9 -9 -10 -7 -5 8 7 18 6 18 -9 6 -18 -14 -20 -12 -11 13 8 20 23
20 31 0z m-462 -14 c-3 -5 -10 -10 -16 -10 -5 0 -9 5 -9 10 0 6 7 10 16 10 8
0 12 -4 9 -10z m88 -27 c-7 -2 -19 -2 -25 0 -7 3 -2 5 12 5 14 0 19 -2 13 -5z
m1163 -28 c7 -19 14 -38 14 -42 0 -11 -24 15 -26 29 -1 7 -5 21 -9 31 -4 9 -4
17 -1 17 4 0 14 -16 22 -35z m-1708 8 c20 -20 24 -100 6 -107 -8 -3 -11 0 -8
8 8 20 -12 29 -37 16 -11 -7 -23 -10 -25 -8 -4 5 38 108 44 108 2 0 11 -7 20
-17z m592 7 c8 -5 11 -10 5 -10 -5 0 -17 5 -25 10 -8 5 -10 10 -5 10 6 0 17
-5 25 -10z m-529 -15 c3 2 6 -5 6 -17 l2 -21 -20 21 c-22 24 -26 40 -6 23 8
-6 16 -9 18 -6z m853 -59 c-10 -8 -21 -12 -24 -9 -3 3 1 8 8 10 6 3 12 12 12
21 0 12 3 13 12 4 9 -9 8 -15 -8 -26z m-835 -30 c-5 -6 -19 -11 -31 -12 -13
-2 -17 0 -10 2 17 8 15 24 -4 24 -8 0 -12 5 -9 10 5 8 12 7 23 -2 14 -11 15
-10 8 7 -7 20 -7 20 12 0 12 -12 16 -24 11 -29z m-93 -11 c-3 -31 -10 -38 -40
-41 -14 -1 -27 4 -30 12 -4 10 -2 12 6 8 8 -5 9 -2 5 10 -6 14 -3 16 13 11 13
-4 22 -1 26 9 10 25 23 19 20 -9z m907 0 c4 -8 2 -17 -3 -20 -6 -4 -10 3 -10
14 0 25 6 27 13 6z m-813 -31 c0 -2 -7 -4 -15 -4 -8 0 -15 4 -15 10 0 5 7 7
15 4 8 -4 15 -8 15 -10z m459 -11 c19 -12 21 -17 10 -24 -19 -13 -157 0 -189
16 l-25 14 25 9 c34 14 150 4 179 -15z m-460 -27 c11 -13 8 -15 -16 -13 -21 2
-28 8 -29 24 -1 18 2 20 16 13 9 -5 22 -16 29 -24z"/>
<path d="M1670 1330 c0 -5 7 -10 15 -10 8 0 15 5 15 10 0 6 -7 10 -15 10 -8 0
-15 -4 -15 -10z"/>
<path d="M1357 763 c-64 -61 -70 -83 -10 -35 53 42 86 79 76 85 -5 3 -34 -20
-66 -50z"/>
<path d="M926 787 c3 -10 9 -15 12 -12 3 3 0 11 -7 18 -10 9 -11 8 -5 -6z"/>
<path d="M820 780 c0 -5 5 -10 10 -10 6 0 10 5 10 10 0 6 -4 10 -10 10 -5 0
-10 -4 -10 -10z"/>
<path d="M704 764 c-18 -14 -18 -14 6 -3 31 14 36 19 24 19 -6 0 -19 -7 -30
-16z"/>
<path d="M696 724 c-4 -9 -4 -19 -1 -22 3 -3 5 0 5 6 0 6 15 9 40 7 36 -3 39
-2 25 12 -11 11 -19 12 -29 4 -9 -7 -16 -7 -23 0 -7 7 -12 5 -17 -7z"/>
<path d="M635 620 c3 -5 11 -10 16 -10 6 0 7 5 4 10 -3 6 -11 10 -16 10 -6 0
-7 -4 -4 -10z"/>
<path d="M630 519 c0 -5 5 -7 10 -4 6 3 10 8 10 11 0 2 -4 4 -10 4 -5 0 -10
-5 -10 -11z"/>
<path d="M630 489 c0 -5 5 -7 10 -4 6 3 10 8 10 11 0 2 -4 4 -10 4 -5 0 -10
-5 -10 -11z"/>
<path d="M550 200 c0 -5 5 -10 11 -10 5 0 7 5 4 10 -3 6 -8 10 -11 10 -2 0 -4
-4 -4 -10z"/>
<path d="M605 50 c-3 -5 -1 -10 4 -10 6 0 11 5 11 10 0 6 -2 10 -4 10 -3 0 -8
-4 -11 -10z"/>
<path d="M808 1759 c-25 -14 -24 -75 1 -89 29 -15 56 -12 74 8 22 25 21 48 -3
72 -22 22 -46 25 -72 9z"/>
<path d="M1362 1754 c-58 -40 5 -118 69 -84 25 14 25 61 1 83 -23 21 -41 21
-70 1z"/>
<path d="M970 1635 l0 -36 143 3 142 3 0 30 0 30 -142 3 -143 3 0 -36z"/>
<path d="M814 1473 c-30 -4 -31 -6 -48 -95 -18 -94 -14 -113 20 -106 13 2 30
31 56 93 50 124 52 118 -28 108z"/>
<path d="M1365 1473 c-27 -7 -32 -18 -41 -78 -3 -27 -10 -60 -15 -72 -12 -31
-1 -53 26 -53 19 0 27 11 46 63 12 34 28 71 35 82 6 11 15 30 19 43 6 19 3 22
-22 21 -15 -1 -37 -4 -48 -6z"/>
<path d="M664 1379 c-3 -6 -1 -16 5 -22 8 -8 11 -5 11 11 0 24 -5 28 -16 11z"/>
<path d="M667 1324 c-10 -11 -9 -62 3 -83 5 -10 11 -54 13 -98 4 -81 10 -103
27 -103 6 0 6 9 1 23 -5 12 -12 69 -16 127 -8 108 -16 146 -28 134z"/>
<path d="M1730 888 c0 -10 9 -9 35 2 17 8 16 8 -7 7 -16 -1 -28 -5 -28 -9z"/>
<path d="M1757 859 c7 -7 15 -10 18 -7 3 3 -2 9 -12 12 -14 6 -15 5 -6 -5z"/>
<path d="M1880 745 c-10 -12 -10 -16 1 -20 10 -4 14 -22 13 -63 -2 -71 5 -122
18 -122 5 0 8 47 6 110 -3 110 -10 128 -38 95z"/>
<path d="M1856 675 c-4 -24 -14 -58 -22 -75 -9 -17 -13 -37 -10 -46 5 -12 2
-12 -15 -3 -17 9 -24 8 -35 -5 -8 -9 -9 -11 -2 -6 18 15 32 12 18 -5 -6 -8
-10 -22 -7 -32 4 -14 5 -14 6 4 0 12 6 25 12 29 17 10 0 -57 -20 -80 -10 -13
-11 -17 -2 -11 11 6 12 -1 6 -41 -4 -27 -12 -52 -17 -55 -6 -4 -7 -12 -4 -18
4 -6 4 -16 1 -21 -10 -17 -35 8 -28 28 4 15 3 15 -6 2 -10 -13 -12 -13 -21 0
-6 9 -10 10 -10 3 0 -7 6 -16 13 -20 6 -4 21 -18 31 -31 16 -18 16 -22 4 -17
-11 5 -16 1 -15 -12 1 -10 -4 -17 -11 -15 -7 1 -20 -4 -28 -12 -12 -13 -11
-15 8 -14 13 1 28 5 34 10 14 10 6 -41 -9 -60 -6 -8 -6 -12 2 -12 6 0 11 -13
11 -29 0 -52 23 -131 37 -131 11 0 12 9 6 38 -11 49 -8 175 3 179 5 2 8 21 6
43 -2 22 -1 48 4 58 4 9 8 26 9 37 4 35 27 146 54 253 23 92 25 112 12 112 -5
0 -12 -20 -15 -45z"/>
<path d="M2065 630 c3 -5 8 -10 11 -10 2 0 4 5 4 10 0 6 -5 10 -11 10 -5 0 -7
-4 -4 -10z"/>
<path d="M2090 630 c0 -5 5 -10 10 -10 6 0 10 5 10 10 0 6 -4 10 -10 10 -5 0
-10 -4 -10 -10z"/>
<path d="M1528 550 c-26 -24 -22 -35 4 -10 12 11 20 22 17 24 -2 2 -12 -4 -21
-14z"/>
<path d="M1727 549 c7 -7 15 -10 18 -7 3 3 -2 9 -12 12 -14 6 -15 5 -6 -5z"/>
<path d="M1900 497 c-8 -12 -13 -28 -11 -36 1 -8 -2 -24 -7 -35 -15 -32 -43
-206 -41 -253 2 -28 6 -40 15 -36 6 2 12 14 11 26 0 43 13 140 21 151 5 6 8
26 8 44 -1 17 3 32 8 32 4 0 5 7 2 16 -4 9 -1 23 5 31 7 7 9 16 6 20 -4 3 -2
13 3 22 14 28 -3 44 -20 18z"/>
<path d="M1516 474 c-7 -18 0 -34 16 -34 6 0 5 7 -3 17 -12 15 -12 16 5 10 16
-6 17 -5 6 8 -16 19 -16 19 -24 -1z"/>
<path d="M1730 479 c0 -5 5 -7 10 -4 6 3 10 8 10 11 0 2 -4 4 -10 4 -5 0 -10
-5 -10 -11z"/>
<path d="M1725 440 c-3 -5 -1 -10 4 -10 6 0 11 5 11 10 0 6 -2 10 -4 10 -3 0
-8 -4 -11 -10z"/>
<path d="M2076 403 c-6 -14 -5 -15 5 -6 7 7 10 15 7 18 -3 3 -9 -2 -12 -12z"/>
<path d="M1723 402 c-6 -4 -2 -15 10 -27 11 -11 17 -14 12 -6 -4 7 -2 16 5 21
9 5 8 9 -3 13 -7 3 -18 2 -24 -1z"/>
<path d="M1630 309 c0 -5 5 -7 10 -4 6 3 10 8 10 11 0 2 -4 4 -10 4 -5 0 -10
-5 -10 -11z"/>
<path d="M1800 310 c0 -5 5 -10 11 -10 5 0 7 5 4 10 -3 6 -8 10 -11 10 -2 0
-4 -4 -4 -10z"/>
<path d="M1399 290 c-1 -5 -2 -16 -3 -22 -1 -13 -4 -18 -36 -55 -13 -15 -13
-16 3 -10 9 3 23 0 31 -8 18 -19 22 -19 29 -1 4 11 1 13 -11 9 -15 -6 -15 -5
-3 10 9 11 10 17 2 17 -6 0 -11 -4 -11 -10 0 -5 -5 -10 -12 -10 -6 0 -1 11 11
24 14 14 18 26 12 30 -5 4 -8 13 -4 21 3 8 2 15 -1 15 -3 0 -7 -4 -7 -10z"/>
<path d="M1800 269 c0 -5 5 -7 10 -4 6 3 10 8 10 11 0 2 -4 4 -10 4 -5 0 -10
-5 -10 -11z"/>
<path d="M2071 266 c-9 -10 -8 -15 2 -19 8 -3 13 3 13 14 0 23 0 23 -15 5z"/>
<path d="M2108 240 c-11 -12 -24 -17 -35 -14 -14 5 -15 4 -4 -4 7 -5 10 -15 7
-21 -5 -7 1 -11 16 -11 18 0 20 2 9 9 -12 8 -11 13 10 30 13 11 27 20 32 21
12 0 8 -12 -10 -27 -16 -13 -16 -13 5 -3 13 6 21 17 19 23 -6 20 -31 19 -49
-3z"/>
<path d="M1500 220 c0 -5 7 -10 16 -10 8 0 12 5 9 10 -3 6 -10 10 -16 10 -5 0
-9 -4 -9 -10z"/>
<path d="M1989 213 c-13 -16 -12 -17 4 -4 16 13 21 21 13 21 -2 0 -10 -8 -17
-17z"/>
<path d="M1619 193 c-13 -16 -12 -17 4 -4 16 13 21 21 13 21 -2 0 -10 -8 -17
-17z"/>
<path d="M2022 196 c7 -8 15 -12 17 -11 5 6 -10 25 -20 25 -5 0 -4 -6 3 -14z"/>
<path d="M2004 181 c5 -7 0 -19 -10 -27 -11 -9 -13 -12 -5 -8 7 3 17 1 21 -5
5 -9 10 -8 20 4 11 13 10 14 -4 9 -12 -4 -15 -2 -10 9 3 8 0 18 -7 23 -8 5
-10 3 -5 -5z"/>
<path d="M1689 163 c-13 -16 -12 -17 4 -4 16 13 21 21 13 21 -2 0 -10 -8 -17
-17z"/>
<path d="M2060 155 c-8 -9 -8 -15 -2 -15 12 0 26 19 19 26 -2 2 -10 -2 -17
-11z"/>
<path d="M1670 126 c0 -9 5 -16 10 -16 6 0 10 4 10 9 0 6 -4 13 -10 16 -5 3
-10 -1 -10 -9z"/>
<path d="M2007 73 c7 -17 19 -17 26 0 3 7 -3 13 -13 13 -10 0 -16 -6 -13 -13z"/>
<path d="M1320 69 c0 -6 -7 -9 -14 -6 -10 4 -13 1 -9 -9 3 -7 0 -14 -7 -14 -9
0 -10 -3 -1 -13 6 -8 9 -16 6 -19 -3 -2 2 -5 10 -5 11 0 12 4 4 14 -15 18 6
44 29 36 15 -6 15 -5 3 10 -16 20 -21 21 -21 6z"/>
<path d="M1416 63 c-4 -9 -1 -21 5 -27 9 -8 10 -7 6 7 -6 16 -4 16 16 2 21
-13 23 -13 23 5 0 10 -2 17 -4 15 -3 -2 -13 0 -22 5 -13 7 -20 5 -24 -7z"/>
<path d="M1940 70 c0 -5 5 -10 11 -10 5 0 7 5 4 10 -3 6 -8 10 -11 10 -2 0 -4
-4 -4 -10z"/>
</g>
</svg>
